<mxfile host="Electron" agent="Mozilla/5.0 (Windows NT 10.0; Win64; x64) AppleWebKit/537.36 (KHTML, like Gecko) draw.io/24.7.17 Chrome/128.0.6613.36 Electron/32.0.1 Safari/537.36" version="24.7.17">
  <diagram name="Page-1" id="rxwtWj-Q2O3zGkdB0jLB">
    <mxGraphModel dx="1222" dy="860" grid="1" gridSize="10" guides="1" tooltips="1" connect="1" arrows="1" fold="1" page="1" pageScale="1" pageWidth="827" pageHeight="1169" math="0" shadow="0">
      <root>
        <mxCell id="0" />
        <mxCell id="1" parent="0" />
        <mxCell id="VTYTF7z3ZeiXhu9waDC9-24" value="" style="group" vertex="1" connectable="0" parent="1">
          <mxGeometry x="93" y="265" width="640" height="640" as="geometry" />
        </mxCell>
        <mxCell id="VTYTF7z3ZeiXhu9waDC9-20" value="&lt;div&gt;&lt;br&gt;&lt;/div&gt;&lt;div&gt;&lt;br&gt;&lt;/div&gt;" style="ellipse;whiteSpace=wrap;html=1;aspect=fixed;" vertex="1" parent="VTYTF7z3ZeiXhu9waDC9-24">
          <mxGeometry width="640" height="640" as="geometry" />
        </mxCell>
        <mxCell id="VTYTF7z3ZeiXhu9waDC9-21" value="" style="ellipse;whiteSpace=wrap;html=1;aspect=fixed;" vertex="1" parent="VTYTF7z3ZeiXhu9waDC9-24">
          <mxGeometry x="105" y="210" width="430" height="430" as="geometry" />
        </mxCell>
        <mxCell id="VTYTF7z3ZeiXhu9waDC9-22" value="" style="ellipse;whiteSpace=wrap;html=1;aspect=fixed;" vertex="1" parent="VTYTF7z3ZeiXhu9waDC9-24">
          <mxGeometry x="180" y="350" width="280" height="280" as="geometry" />
        </mxCell>
        <mxCell id="VTYTF7z3ZeiXhu9waDC9-23" value="" style="ellipse;whiteSpace=wrap;html=1;aspect=fixed;" vertex="1" parent="VTYTF7z3ZeiXhu9waDC9-24">
          <mxGeometry x="246" y="480" width="150" height="150" as="geometry" />
        </mxCell>
        <mxCell id="VTYTF7z3ZeiXhu9waDC9-25" value="Wider Environment" style="text;html=1;align=center;verticalAlign=middle;whiteSpace=wrap;rounded=0;" vertex="1" parent="VTYTF7z3ZeiXhu9waDC9-24">
          <mxGeometry x="290" y="10" width="60" height="30" as="geometry" />
        </mxCell>
        <mxCell id="VTYTF7z3ZeiXhu9waDC9-26" value="Containing Environment" style="text;html=1;align=center;verticalAlign=middle;whiteSpace=wrap;rounded=0;" vertex="1" parent="VTYTF7z3ZeiXhu9waDC9-24">
          <mxGeometry x="290" y="220" width="60" height="30" as="geometry" />
        </mxCell>
        <mxCell id="VTYTF7z3ZeiXhu9waDC9-27" value="System" style="text;html=1;align=center;verticalAlign=middle;whiteSpace=wrap;rounded=0;" vertex="1" parent="VTYTF7z3ZeiXhu9waDC9-24">
          <mxGeometry x="290" y="360" width="60" height="30" as="geometry" />
        </mxCell>
        <mxCell id="VTYTF7z3ZeiXhu9waDC9-28" value="Application" style="text;html=1;align=center;verticalAlign=middle;whiteSpace=wrap;rounded=0;" vertex="1" parent="VTYTF7z3ZeiXhu9waDC9-24">
          <mxGeometry x="291" y="490" width="60" height="30" as="geometry" />
        </mxCell>
        <mxCell id="VTYTF7z3ZeiXhu9waDC9-29" value="ML Engineer" style="shape=umlActor;verticalLabelPosition=bottom;verticalAlign=top;html=1;outlineConnect=0;" vertex="1" parent="VTYTF7z3ZeiXhu9waDC9-24">
          <mxGeometry x="216" y="420" width="30" height="60" as="geometry" />
        </mxCell>
        <mxCell id="VTYTF7z3ZeiXhu9waDC9-30" value="User" style="shape=umlActor;verticalLabelPosition=bottom;verticalAlign=top;html=1;outlineConnect=0;" vertex="1" parent="VTYTF7z3ZeiXhu9waDC9-24">
          <mxGeometry x="180" y="290" width="30" height="60" as="geometry" />
        </mxCell>
        <mxCell id="VTYTF7z3ZeiXhu9waDC9-31" value="3rd Party" style="shape=umlActor;verticalLabelPosition=bottom;verticalAlign=top;html=1;outlineConnect=0;" vertex="1" parent="VTYTF7z3ZeiXhu9waDC9-24">
          <mxGeometry x="430" y="290" width="30" height="60" as="geometry" />
        </mxCell>
        <mxCell id="VTYTF7z3ZeiXhu9waDC9-32" value="Competitors" style="shape=umlActor;verticalLabelPosition=bottom;verticalAlign=top;html=1;outlineConnect=0;" vertex="1" parent="VTYTF7z3ZeiXhu9waDC9-24">
          <mxGeometry x="66" y="190" width="30" height="60" as="geometry" />
        </mxCell>
        <mxCell id="VTYTF7z3ZeiXhu9waDC9-33" value="Hackers" style="shape=umlActor;verticalLabelPosition=bottom;verticalAlign=top;html=1;outlineConnect=0;" vertex="1" parent="VTYTF7z3ZeiXhu9waDC9-24">
          <mxGeometry x="36" y="310" width="30" height="60" as="geometry" />
        </mxCell>
        <mxCell id="VTYTF7z3ZeiXhu9waDC9-34" value="Researchers" style="shape=umlActor;verticalLabelPosition=bottom;verticalAlign=top;html=1;outlineConnect=0;" vertex="1" parent="VTYTF7z3ZeiXhu9waDC9-24">
          <mxGeometry x="305" y="70" width="30" height="60" as="geometry" />
        </mxCell>
        <mxCell id="VTYTF7z3ZeiXhu9waDC9-36" value="Environmenal Agencies" style="shape=umlActor;verticalLabelPosition=bottom;verticalAlign=top;html=1;outlineConnect=0;" vertex="1" parent="VTYTF7z3ZeiXhu9waDC9-24">
          <mxGeometry x="540" y="180" width="30" height="60" as="geometry" />
        </mxCell>
      </root>
    </mxGraphModel>
  </diagram>
</mxfile>
